<svg width="114" height="82" viewBox="0 0 114 82" fill="none" xmlns="http://www.w3.org/2000/svg">
<path d="M12.6435 26.3813C3.77194 59.4905 29.0533 54.7483 56.6878 62.153C84.3223 69.5576 93.4339 98.9887 103.505 53.7057C110.629 21.6736 85.6008 30.9152 57.9663 23.5106C30.3318 16.1059 23.0145 -12.3238 12.6435 26.3813Z" fill="#EBF5E8"/>
<path opacity="0.25" d="M114 45.8388C114 77.529 88.6103 67.2446 57.2906 67.2446C25.9708 67.2446 7.99695 91.3471 10.1781 48.4983C11.721 18.1882 35.5678 32.4301 66.8875 32.4301C98.2073 32.4301 114 8.79243 114 45.8388Z" fill="#D9E9D5"/>
<path fill-rule="evenodd" clip-rule="evenodd" d="M90.1296 15.7035H27.8704V20.7628H90.1296V15.7035ZM27.8704 12.8125H24.8333V15.7035V20.7628V23.6538H27.8704H32.1843L32.3569 24.3766L35.3833 37.0526L21.1406 57.6234L20.6402 58.3462H18V61.2372V66.2965V69.1875H21.037H96.963H100V66.2965V61.2372V60.5144V58.3462H98.3952L97.8603 57.6234L82.6212 37.0337L85.6431 24.3766L85.8157 23.6538H90.1296H93.1667V20.7628V15.7035V12.8125H90.1296H27.8704ZM24.7779 57.6234L36.316 40.959L37.2852 45.0185L29.0093 57.6234H24.7779ZM86.2543 57.6234H32.5907L40.1833 46.0593H77.9024L86.2543 57.6234ZM94.1452 57.6234H89.9398L80.745 44.8921L81.7151 40.8289L94.1452 57.6234ZM78.2146 42.4455L78.9049 39.5545H39.0951L39.7854 42.4455H78.2146ZM38.4049 36.6635H79.5951L82.5286 24.3766H35.4714L38.4049 36.6635ZM21.037 61.2372H96.963V66.2965H21.037V61.2372Z" fill="#006931"/>
<path d="M59.1576 50.3919C58.5358 45.6033 59.7186 40.5934 63.3363 36.7833C65.4996 34.5049 68.724 31.9767 72.2047 31.381C75.3609 30.8408 78.4129 31.5343 81.2836 32.6158C86.2187 34.475 89.432 37.1975 89.1148 42.0826C88.9647 44.3957 86.8113 45.4734 84.2598 45.3369C80.5887 45.1406 77.6688 42.4945 76.684 39.6388C74.3395 32.8398 74.9142 24.6229 79.4798 18.6084C82.1953 15.0311 86.2288 11.6746 90.7983 9.87466C91.7272 9.50878 92.9408 9 94 9" stroke="#D9E9D5" stroke-linecap="round" stroke-dasharray="3 3"/>
<path d="M6.04651 20.5C5.61399 24.7138 8.25304 31.3105 11.6449 34.0103C15.8099 37.3254 21.0243 39.0418 26.0465 39.4445C31.6502 39.8938 36.8344 39.4445 42.4694 39.4445C46.3228 39.4445 49.2483 38.5634 53.0465 39.4445C55.5156 40.0172 57.0252 41.05 57.9088 42.963C58.91 45.1306 58.1062 47.9645 59.0464 50" stroke="#D9E9D5" stroke-linecap="round" stroke-dasharray="3 3"/>
<path d="M98.0344 5.58633C98.3001 4.59964 99.6999 4.59964 99.9656 5.58633L100.123 6.17127C100.216 6.51541 100.485 6.78423 100.829 6.87689L101.414 7.03439C102.4 7.30005 102.4 8.69995 101.414 8.96561L100.829 9.12311C100.485 9.21577 100.216 9.48459 100.123 9.82873L99.9656 10.4137C99.6999 11.4004 98.3001 11.4004 98.0344 10.4137L97.8769 9.82873C97.7842 9.48459 97.5154 9.21577 97.1713 9.12311L96.5863 8.96561C95.5996 8.69995 95.5996 7.30005 96.5863 7.03439L97.1713 6.87689C97.5154 6.78423 97.7842 6.51541 97.8769 6.17127L98.0344 5.58633Z" fill="#D9E9D5"/>
<path d="M5.04368 14.1288C5.33209 13.1852 6.66791 13.1852 6.95632 14.1288L7.49134 15.8791C7.53576 16.0245 7.61271 16.1578 7.71636 16.2689L8.96473 17.6074C9.63769 18.329 8.96978 19.4858 8.0084 19.2638L6.22502 18.852C6.07695 18.8178 5.92305 18.8178 5.77498 18.852L3.9916 19.2638C3.03022 19.4858 2.3623 18.329 3.03527 17.6074L4.28364 16.2689C4.38729 16.1578 4.46424 16.0245 4.50866 15.8791L5.04368 14.1288Z" fill="#D9E9D5"/>
</svg>
